<svg width="0" height="0" class="hidden"><symbol xmlns="http://www.w3.org/2000/svg" viewBox="0 0 64 64" id="shield-grid-1"><title>Shield Grid</title><desc>A color styled icon from Orion Icon Library.</desc><path data-name="layer4" d="M32 2H6v22.064A35.42 35.42 0 0 0 6.361 29h25.636z" fill="#fc6" style="fill:var(--layer4, #fc6)"></path><path data-name="layer3" d="M32 2l-.003 27h25.639A35.224 35.224 0 0 0 58 24.064V2z" fill="#f66" style="fill:var(--layer3, #f66)"></path><path data-name="layer2" d="M6.361 29a42.063 42.063 0 0 0 25.633 33l.003-33z" fill="#5ade9c" style="fill:var(--layer2, #5ade9c)"></path><path data-name="layer1" d="M31.994 62a42.029 42.029 0 0 0 25.642-33H31.997z" fill="#49bcff" style="fill:var(--layer1, #49bcff)"></path><path data-name="stroke" d="M6 2h52v22.064A41.975 41.975 0 0 1 31.994 62 41.97 41.97 0 0 1 6 24.064zm26 0l-.006 60M6.358 29h51.28" fill="none" stroke="#2e4369" stroke-linecap="round" stroke-linejoin="round" stroke-width="2" style="stroke:var(--stroke, #2e4369)"></path></symbol><symbol viewBox="0 0 64 64" xmlns="http://www.w3.org/2000/svg" id="star-1"><title>Star</title><desc>A color styled icon from Orion Icon Library.</desc><path d="M31 47.245L12.457 61l7.141-22.174L1 25h22.953L31 3l7.045 22H61L42.398 38.826 49.539 61 31 47.245z" fill="#fc6" data-name="layer1" style="fill:var(--layer1, #fc6)"></path><path d="M23.953 25H1l18.598 13.826L12.457 61 31 47.245V3l-7.047 22z" opacity=".15" fill="#000064" data-name="opacity"></path><path d="M31 47.245L12.457 61l7.141-22.174L1 25h22.953L31 3l7.045 22H61L42.398 38.826 49.539 61 31 47.245z" stroke-width="2" stroke-linejoin="round" stroke-linecap="round" stroke="#2e4369" fill="none" data-name="stroke" style="stroke:var(--stroke, #2e4369)"></path></symbol><symbol xmlns="http://www.w3.org/2000/svg" viewBox="0 0 64 64" id="wall-clock-1"><title>Wall Clock</title><desc>A color styled icon from Orion Icon Library.</desc><circle data-name="layer2" cx="32" cy="32" r="30" fill="#e1f4f3" style="fill:var(--layer2, #e1f4f3)"></circle><path data-name="opacity" d="M47.414 20.586a2 2 0 0 0-2.828 0L33.751 31.421a3.907 3.907 0 0 0-3.915.224l-5.569-4.193a2 2 0 0 0-2.533 3.1l6.3 4.792A3.99 3.99 0 0 0 36 35c0-.053-.014-.1-.016-.156l11.43-11.43a2 2 0 0 0 0-2.828z" fill="#000064" opacity=".15"></path><path data-name="opacity" d="M32 2A29.938 29.938 0 0 0 8.881 12.881a30 30 0 0 1 42.238 42.238A30 30 0 0 0 32 2z" fill="#000064" opacity=".15"></path><circle data-name="layer1" cx="32" cy="33" r="2" fill="#6e7da9" style="fill:var(--layer1, #6e7da9)"></circle><circle data-name="stroke" cx="32" cy="32" r="30" fill="none" stroke="#2e4369" stroke-linecap="round" stroke-miterlimit="10" stroke-width="2" stroke-linejoin="round" style="stroke:var(--stroke, #2e4369)"></circle><path data-name="stroke" fill="none" stroke="#2e4369" stroke-linecap="round" stroke-miterlimit="10" stroke-width="2" d="M32 7v5m0 40v5M7 32h5m40 0h5" stroke-linejoin="round" style="stroke:var(--stroke, #2e4369)"></path><circle data-name="stroke" cx="32" cy="33" r="2" fill="none" stroke="#2e4369" stroke-linecap="round" stroke-miterlimit="10" stroke-width="2" stroke-linejoin="round" style="stroke:var(--stroke, #2e4369)"></circle><path data-name="stroke" fill="none" stroke="#2e4369" stroke-linecap="round" stroke-miterlimit="10" stroke-width="2" d="M30.084 32.432L21 25m27-7L33.822 32.178" stroke-linejoin="round" style="stroke:var(--stroke, #2e4369)"></path></symbol><symbol xmlns="http://www.w3.org/2000/svg" viewBox="0 0 64 64" id="software-service-1"><title>Software Service</title><desc>A color styled icon from Orion Icon Library.</desc><path data-name="layer5" fill="#fff" d="M12 42V16h50v30H12v-4z" style="fill:var(--layer5, #fff)"></path><path data-name="layer4" fill="#c3d6f9" d="M2 42h10v18H2z" style="fill:var(--layer4, #c3d6f9)"></path><path data-name="layer3" fill="#a6b1c9" d="M12 4h50v12H12z" style="fill:var(--layer3, #a6b1c9)"></path><circle data-name="layer2" cx="18" cy="10" r="1" fill="#f27e7c" style="fill:var(--layer2, #f27e7c)"></circle><circle data-name="layer2" cx="25" cy="10" r="1" fill="#f27e7c" style="fill:var(--layer2, #f27e7c)"></circle><circle data-name="layer2" cx="32" cy="10" r="1" fill="#f27e7c" style="fill:var(--layer2, #f27e7c)"></circle><path data-name="layer1" d="M42 52c26.1.4 20 8 18 8H24c-4 0-8-4-12-4V44c4 0 6-2 12-2s18 1 18 9z" fill="#f7deda" style="fill:var(--layer1, #f7deda)"></path><path data-name="opacity" fill="#000064" opacity=".15" d="M12 16h4v28h-4zm0-12h4v12h-4z"></path><path data-name="stroke" fill="none" stroke="#2e4369" stroke-linecap="round" stroke-linejoin="round" stroke-width="2" d="M2 42h10v18H2zm10 14c4 0 8 4 12 4h36c2 0 8.4-8-20-8-9.6 0-14-2-14-2" style="stroke:var(--stroke, #2e4369)"></path><path data-name="stroke" d="M12 44c4 0 6-2 12-2s18 1 18 9v1" fill="none" stroke="#2e4369" stroke-linecap="round" stroke-linejoin="round" stroke-width="2" style="stroke:var(--stroke, #2e4369)"></path><circle data-name="stroke" cx="18" cy="10" r="1" fill="none" stroke="#2e4369" stroke-linecap="round" stroke-linejoin="round" stroke-width="2" style="stroke:var(--stroke, #2e4369)"></circle><circle data-name="stroke" cx="25" cy="10" r="1" fill="none" stroke="#2e4369" stroke-linecap="round" stroke-linejoin="round" stroke-width="2" style="stroke:var(--stroke, #2e4369)"></circle><circle data-name="stroke" cx="32" cy="10" r="1" fill="none" stroke="#2e4369" stroke-linecap="round" stroke-linejoin="round" stroke-width="2" style="stroke:var(--stroke, #2e4369)"></circle><path data-name="stroke" fill="none" stroke="#2e4369" stroke-linecap="round" stroke-linejoin="round" stroke-width="2" d="M12 4h50v12H12zm28 42h22V16m-50 0v26" style="stroke:var(--stroke, #2e4369)"></path></symbol><symbol xmlns="http://www.w3.org/2000/svg" viewBox="0 0 64 64" id="sent-email-1"><title>Sent Email</title><desc>A color styled icon from Orion Icon Library.</desc><path data-name="layer1" fill="#dbf1ff" d="M4 28L60 4 36 60 24 40 4 28z" style="fill:var(--layer1, #dbf1ff)"></path><path data-name="opacity" fill="#000064" opacity=".14" d="M36 60L60 4 24 40l12 20z"></path><path data-name="stroke" fill="none" stroke="#2e4369" stroke-linecap="round" stroke-miterlimit="10" stroke-width="2" d="M24 40L60 4M4 28L60 4 36 60 24 40 4 28z" stroke-linejoin="round" style="stroke:var(--stroke, #2e4369)"></path></symbol><symbol xmlns="http://www.w3.org/2000/svg" viewBox="0 0 64 64" id="notebook-1"><title>Notebook</title><desc>A color styled icon from Orion Icon Library.</desc><path data-name="layer3" fill="#b3d9ff" d="M18 2h36v60H18z" style="fill:var(--layer3, #b3d9ff)"></path><path data-name="layer2" d="M11 2a3 3 0 0 0-3 3v54a3 3 0 0 0 3 3h7V2z" fill="#8fa9d8" style="fill:var(--layer2, #8fa9d8)"></path><path data-name="layer1" fill="#eaf7ff" d="M28 14h16v8H28z" style="fill:var(--layer1, #eaf7ff)"></path><path data-name="opacity" d="M11 2a3 3 0 0 0-3 3v54a3 3 0 0 0 3 3h3V2z" fill="#000064" opacity=".15"></path><path data-name="stroke" fill="none" stroke="#2e4369" stroke-linecap="round" stroke-miterlimit="10" stroke-width="2" d="M18 2v60m36 0H11a3 3 0 0 1-3-3V5a3 3 0 0 1 3-3h43z" stroke-linejoin="round" style="stroke:var(--stroke, #2e4369)"></path><path data-name="stroke" fill="none" stroke="#2e4369" stroke-linecap="round" stroke-miterlimit="10" stroke-width="2" d="M28 14h16v8H28z" stroke-linejoin="round" style="stroke:var(--stroke, #2e4369)"></path></symbol><symbol xmlns="http://www.w3.org/2000/svg" viewBox="0 0 64 64" id="binocular-1"><title>Binocular</title><desc>A color styled icon from Orion Icon Library.</desc><circle data-name="layer3" cx="15" cy="42" r="13" fill="#78d1f4" style="fill:var(--layer3, #78d1f4)"></circle><circle data-name="layer3" cx="49" cy="42" r="13" fill="#78d1f4" style="fill:var(--layer3, #78d1f4)"></circle><path data-name="opacity" d="M15 29a13 13 0 0 0-11.7 7.4 13 13 0 0 1 21.4 14.2A13 13 0 0 0 15 29zm32 3a13 13 0 0 1 11.7 18.6 13 13 0 1 0-21.4-14.2A13 13 0 0 1 47 32z" fill="#000028" opacity=".15"></path><path data-name="layer2" d="M20.4 9a7.7 7.7 0 0 0-6.7 4.1L3 36.9A13 13 0 0 1 27.9 42V16.5A7.5 7.5 0 0 0 20.4 9zm28.5 20a13 13 0 0 1 11.9 7.9L50.1 13.1A7.7 7.7 0 0 0 43.4 9a7.5 7.5 0 0 0-7.5 7.5V42a13 13 0 0 1 13-13z" fill="#7b8baf" style="fill:var(--layer2, #7b8baf)"></path><path data-name="layer1" d="M35.9 17.8a10 10 0 0 0-7.9 0v12a10 10 0 0 1 7.9 0z" fill="#536897" style="fill:var(--layer1, #536897)"></path><path data-name="opacity" d="M50.1 13.1A7.9 7.9 0 0 0 46 9.5l7.1 20.2a13 13 0 0 1 7.7 7.2z" fill="#fff" opacity=".25"></path><circle data-name="stroke" cx="15" cy="42" r="13" fill="none" stroke="#2e4369" stroke-linecap="round" stroke-linejoin="round" stroke-width="2" style="stroke:var(--stroke, #2e4369)"></circle><path data-name="stroke" d="M22 42a7 7 0 0 1-7 7m41-7a7 7 0 0 1-7 7" fill="none" stroke="#2e4369" stroke-linecap="round" stroke-linejoin="round" stroke-width="2" style="stroke:var(--stroke, #2e4369)"></path><circle data-name="stroke" cx="49" cy="42" r="13" fill="none" stroke="#2e4369" stroke-linecap="round" stroke-linejoin="round" stroke-width="2" style="stroke:var(--stroke, #2e4369)"></circle><path data-name="stroke" d="M28 42V16.5A7.5 7.5 0 0 0 20.5 9a7.7 7.7 0 0 0-6.7 4.1l-.3.6L3 37m33 5V16.5A7.5 7.5 0 0 1 43.5 9a7.7 7.7 0 0 1 6.7 4.1l.3.6L61 37M28 17.8a10 10 0 0 1 7.9 0m-7.9 12a10 10 0 0 1 7.9 0" fill="none" stroke="#2e4369" stroke-linecap="round" stroke-linejoin="round" stroke-width="2" style="stroke:var(--stroke, #2e4369)"></path></symbol><symbol xmlns="http://www.w3.org/2000/svg" viewBox="0 0 64 64" id="ecommerce-cart-1"><title>E-commerce Cart</title><desc>A color styled icon from Orion Icon Library.</desc><path data-name="layer2" fill="#c3d6f9" d="M54 46H22l-6-24h46l-8 24z" style="fill:var(--layer2, #c3d6f9)"></path><circle data-name="layer1" cx="24" cy="54" r="4" fill="#a6b1c9" style="fill:var(--layer1, #a6b1c9)"></circle><circle data-name="layer1" cx="50" cy="54" r="4" fill="#a6b1c9" style="fill:var(--layer1, #a6b1c9)"></circle><path data-name="opacity" fill="#000064" opacity=".15" d="M18 30l1 4h39l1.3-4H18zm3 12h34.3l1.4-4H20l1 4z"></path><path data-name="stroke" fill="none" stroke="#2e4369" stroke-linecap="round" stroke-linejoin="round" stroke-width="2" d="M62 22H16M2 6h10l10 40h32" style="stroke:var(--stroke, #2e4369)"></path><circle data-name="stroke" cx="24" cy="54" r="4" fill="none" stroke="#2e4369" stroke-linecap="round" stroke-linejoin="round" stroke-width="2" style="stroke:var(--stroke, #2e4369)"></circle><circle data-name="stroke" cx="50" cy="54" r="4" fill="none" stroke="#2e4369" stroke-linecap="round" stroke-linejoin="round" stroke-width="2" style="stroke:var(--stroke, #2e4369)"></circle><path data-name="stroke" fill="none" stroke="#2e4369" stroke-linecap="round" stroke-linejoin="round" stroke-width="2" d="M59 30H26m30 8H28" style="stroke:var(--stroke, #2e4369)"></path></symbol><symbol viewBox="0 0 64 64" xmlns="http://www.w3.org/2000/svg" id="import-1"><title>Import</title><desc>A color styled icon from Orion Icon Library.</desc><path d="M30 6h32v52H30z" fill="#dde5f4" data-name="layer1" style="fill:var(--layer1, #dde5f4)"></path><path d="M30 32v21l21-21H30z" opacity=".15" fill="#000028" data-name="opacity"></path><path d="M30 22V6h32v52H30V42M2 32h49" stroke-width="2" stroke-linejoin="round" stroke-linecap="round" stroke="#2e4369" fill="none" data-name="stroke" style="stroke:var(--stroke, #2e4369)"></path><path d="M38 43l13-11-13-11" stroke-width="2" stroke-linejoin="round" stroke-linecap="round" stroke="#2e4369" fill="none" data-name="stroke" style="stroke:var(--stroke, #2e4369)"></path></symbol><symbol xmlns="http://www.w3.org/2000/svg" viewBox="0 0 64 64" id="items-in-cart-1"><title>Items In Cart</title><desc>A color styled icon from Orion Icon Library.</desc><circle data-name="layer2" cx="20" cy="54" r="4" fill="#a6b1c9" style="fill:var(--layer2, #a6b1c9)"></circle><circle data-name="layer2" cx="46" cy="54" r="4" fill="#a6b1c9" style="fill:var(--layer2, #a6b1c9)"></circle><circle data-name="layer1" cx="46" cy="22" r="16" fill="#c3d6f9" style="fill:var(--layer1, #c3d6f9)"></circle><path data-name="layer1" d="M30 22H12l6 24h32l3.2-9.7A16 16 0 0 1 30 22z" fill="#c3d6f9" style="fill:var(--layer1, #c3d6f9)"></path><path data-name="opacity" d="M53.2 36.3A16 16 0 0 1 30 22h-3.5a16 16 0 0 0 26.2 15.9l.5-1.6z" fill="#000064" opacity=".15"></path><path data-name="stroke" fill="none" stroke="#2e4369" stroke-linecap="round" stroke-linejoin="round" stroke-width="2" d="M30 22H12M2 6h6l10 40h32l3.2-9.7" style="stroke:var(--stroke, #2e4369)"></path><circle data-name="stroke" cx="20" cy="54" r="4" fill="none" stroke="#2e4369" stroke-linecap="round" stroke-linejoin="round" stroke-width="2" style="stroke:var(--stroke, #2e4369)"></circle><circle data-name="stroke" cx="46" cy="54" r="4" fill="none" stroke="#2e4369" stroke-linecap="round" stroke-linejoin="round" stroke-width="2" style="stroke:var(--stroke, #2e4369)"></circle><circle data-name="stroke" cx="46" cy="22" r="16" fill="none" stroke="#2e4369" stroke-linecap="round" stroke-linejoin="round" stroke-width="2" style="stroke:var(--stroke, #2e4369)"></circle></symbol><symbol xmlns="http://www.w3.org/2000/svg" viewBox="0 0 64 64" id="label-tag-1"><title>Label Tag</title><desc>A color styled icon from Orion Icon Library.</desc><path data-name="layer1" d="M59.6 4.4L38.4 3 3 38.4 25.6 61 61 25.6zM48 19a4 4 0 1 1 4-4 4 4 0 0 1-4 4z" fill="#ffd879" style="fill:var(--layer1, #ffd879)"></path><path data-name="opacity" fill="#000064" opacity=".15" d="M41.2 3.2L38.4 3 3 38.4 25.6 61l3.5-3.5L8 36.4 41.2 3.2z"></path><path data-name="stroke" fill="none" stroke="#2e4369" stroke-linecap="round" stroke-linejoin="round" stroke-width="2" d="M25.6 61L3 38.4 38.4 3l21.2 1.4L61 25.6 25.6 61z" style="stroke:var(--stroke, #2e4369)"></path><circle data-name="stroke" cx="48" cy="15" r="4" fill="none" stroke="#2e4369" stroke-linecap="round" stroke-linejoin="round" stroke-width="2" style="stroke:var(--stroke, #2e4369)"></circle><path data-name="stroke" fill="none" stroke="#2e4369" stroke-linecap="round" stroke-linejoin="round" stroke-width="2" d="M31.3 21.4l11.3 11.3m-22.6 0l8.5 8.5M25.6 27l5.7 5.7" style="stroke:var(--stroke, #2e4369)"></path></symbol><symbol xmlns="http://www.w3.org/2000/svg" viewBox="0 0 64 64" id="edit-user-1"><title>Edit User</title><desc>A color styled icon from Orion Icon Library.</desc><path data-name="layer3" fill="#f27e7c" d="M56 31L35.6 51.3l6 6L62 37l-6-6z" style="fill:var(--layer3, #f27e7c)"></path><path data-name="layer2" fill="#e8d4d4" d="M35.2 51.7L30.8 62l10.4-4.3.4-.4-6-6-.4.4z" style="fill:var(--layer2, #e8d4d4)"></path><path data-name="layer1" d="M35.9 41c-3.3-1-3.9-2.9-3.9-4v-2a14.1 14.1 0 0 0 4-7c2.5 0 4-3 4-6 0-.8 0-4-2-4C43 3.5 28.4-2 18 5c-4.4 0-5.6 6.6-4 13-2 0-2 3.2-2 4 0 3 1.5 6 4 6a13.6 13.6 0 0 0 4 7v2c0 1.6-.5 3.6-8.6 5.2S2 51 2 51h34l8-8z" fill="#a5d0ec" style="fill:var(--layer1, #a5d0ec)"></path><path data-name="opacity" d="M44 43l-4.8-1.2L30 51h6zM20 28c.8 3 4.1 5.3 6 7v2c0 1.6-.5 3.6-8.6 5.2S8 51 8 51H2s0-7 9.4-8.8S20 38.6 20 37v-2a13.6 13.6 0 0 1-4-7c-2.5 0-4-3-4-6 0-.8 0-4 2-4-1.6-6.4-.4-13 4-13a16.7 16.7 0 0 1 12.5-2.7A17.8 17.8 0 0 0 24 5c-4.4 0-7.6 6.6-6 13 0 0-1 8 2 10z" fill="#000064" opacity=".15"></path><path data-name="stroke" d="M36 51H2s0-7 9.4-8.8S20 38.6 20 37v-2a14.2 14.2 0 0 1-4-7c-2.5 0-4-3-4-6 0-.8 0-4 2-4-1.6-6.4-.4-13 4-13 10.4-7 25-1.5 20 13 2 0 2 3.2 2 4 0 3-1.5 6-4 6a14.1 14.1 0 0 1-4 7v2c0 1.1.5 3 3.9 4l8.1 2" fill="none" stroke="#2e4369" stroke-linecap="round" stroke-linejoin="round" stroke-width="2" style="stroke:var(--stroke, #2e4369)"></path><path data-name="stroke" fill="none" stroke="#2e4369" stroke-linecap="round" stroke-linejoin="round" stroke-width="2" d="M56 31L35.2 51.7 30.8 62l10.4-4.3L62 37l-6-6zM35.8 51.5l6 6" style="stroke:var(--stroke, #2e4369)"></path></symbol><symbol xmlns="http://www.w3.org/2000/svg" viewBox="0 0 64 64" id="find-document-1"><title>Find Document</title><desc>A color styled icon from Orion Icon Library.</desc><path data-name="layer1" d="M10 48V19h38v-8H20V7H2v41a3 3 0 0 0 3 3h2a3 3 0 0 0 3-3z" fill="#f8da82" style="fill:var(--layer1, #f8da82)"></path><path data-name="opacity" d="M10 48V19h38v-8H20V7H2v41a3 3 0 0 0 3 3h2a3 3 0 0 0 3-3z" fill="#000064" opacity=".15"></path><path data-name="opacity" fill="#fff" opacity=".2" d="M10 19h44v3H10z" style="fill:var(--layer2, #fff)"></path><circle data-name="layer2" cx="46" cy="43" r="10" fill="#fff" style="fill:var(--layer2, #fff)"></circle><path data-name="opacity" d="M45 35a10 10 0 0 1 9.4 13.5 10 10 0 1 0-17.7-8.9A10 10 0 0 1 45 35z" fill="#000064" opacity=".1"></path><path data-name="layer1" d="M36 43a10 10 0 0 1 18-6V19H10v29a3 3 0 0 1-3 3h33a10 10 0 0 1-4-8z" fill="#f8da82" style="fill:var(--layer1, #f8da82)"></path><path data-name="opacity" d="M31 45a9.9 9.9 0 0 0 2 6h7a10 10 0 0 1-.1-15.9A10 10 0 0 0 31 45z" fill="#000064" opacity=".15"></path><path data-name="stroke" d="M54 37V19H10v29a3 3 0 0 1-3 3" fill="none" stroke="#2e4369" stroke-linecap="round" stroke-miterlimit="10" stroke-width="2" stroke-linejoin="round" style="stroke:var(--stroke, #2e4369)"></path><path data-name="stroke" d="M48 19v-8H20V7H2v41a3 3 0 0 0 3 3h35" fill="none" stroke="#2e4369" stroke-linecap="round" stroke-miterlimit="10" stroke-width="2" stroke-linejoin="round" style="stroke:var(--stroke, #2e4369)"></path><circle data-name="stroke" cx="46" cy="43" r="10" fill="none" stroke="#2e4369" stroke-linecap="round" stroke-miterlimit="10" stroke-width="2" stroke-linejoin="round" style="stroke:var(--stroke, #2e4369)"></circle><path data-name="stroke" fill="none" stroke="#2e4369" stroke-linecap="round" stroke-miterlimit="10" stroke-width="2" d="M53.1 50.1L62 59" stroke-linejoin="round" style="stroke:var(--stroke, #2e4369)"></path></symbol><symbol xmlns="http://www.w3.org/2000/svg" viewBox="0 0 64 64" id="archive-settings-1"><title>Archive Settings</title><desc>A color styled icon from Orion Icon Library.</desc><path data-name="layer2" d="M35 46.1a11.6 11.6 0 0 1 0-4.4L32 40l4-7 3.1 1.8a12 12 0 0 1 3.7-2.1V29h8v3.7a12 12 0 0 1 3.2 1.7V19H10v29a3 3 0 0 1-3 3h26.4l-1.7-3z" fill="#f8da82" style="fill:var(--layer2, #f8da82)"></path><path data-name="layer2" d="M10 48V19h38v-8H20V7H2v41a3 3 0 0 0 3 3h2a3 3 0 0 0 3-3z" fill="#f8da82" style="fill:var(--layer2, #f8da82)"></path><path data-name="opacity" d="M10 48V19h38v-8H20V7H2v41a3 3 0 0 0 3 3h2a3 3 0 0 0 3-3z" fill="#000064" opacity=".15"></path><path data-name="opacity" fill="#fff" opacity=".2" d="M10 19h44v3H10z"></path><path data-name="opacity" d="M31.7 48l3.3-1.9a11.6 11.6 0 0 1 0-4.4L32 40l2.6-4.6-.6.4-3-1.8-4 7 3 1.7a11.6 11.6 0 0 0 0 4.4L26.7 49l1.1 2h5.6zm6.1-14.3l-.4.2 1.7 1a12 12 0 0 1 3.7-2.1V30h-5z" fill="#000064" opacity=".15"></path><path data-name="layer1" d="M58.6 46.1a11.8 11.8 0 0 0 0-4.3l3.1-1.8-4-6.9-3.1 1.8a12 12 0 0 0-3.7-2.1V29h-8v3.7a12 12 0 0 0-3.7 2.1L36 33l-4 7 3 1.7a11.6 11.6 0 0 0 0 4.4L31.7 48l4 6.9 3.3-1.8a12 12 0 0 0 3.8 2.2V59h8v-3.7a12 12 0 0 0 3.9-2.3l3.3 2 4-7zM47 49a5 5 0 1 1 5-5 5 5 0 0 1-5 5z" fill="#8fa9d8" style="fill:var(--layer1, #8fa9d8)"></path><path data-name="stroke" d="M54 34.4V19H10v29a3 3 0 0 1-3 3" fill="none" stroke="#2e4369" stroke-linecap="round" stroke-miterlimit="10" stroke-width="2" stroke-linejoin="round" style="stroke:var(--stroke, #2e4369)"></path><path data-name="stroke" d="M48 19v-8H20V7H2v41a3 3 0 0 0 3 3h28.4" fill="none" stroke="#2e4369" stroke-linecap="round" stroke-miterlimit="10" stroke-width="2" stroke-linejoin="round" style="stroke:var(--stroke, #2e4369)"></path><circle data-name="stroke" cx="47" cy="44" r="5" fill="none" stroke="#2e4369" stroke-linecap="round" stroke-miterlimit="10" stroke-width="2" stroke-linejoin="round" style="stroke:var(--stroke, #2e4369)"></circle><path data-name="stroke" d="M62 48l-3.4-2a11.8 11.8 0 0 0 0-4.3l3.1-1.7-4-6.9-3.1 1.8a12 12 0 0 0-3.7-2.1V29h-8v3.7a12 12 0 0 0-3.7 2.1L36 33l-4 7 3 1.7a11.6 11.6 0 0 0 0 4.4L31.7 48l4 6.9 3.3-1.8a12 12 0 0 0 3.8 2.2V59h8v-3.7a12 12 0 0 0 3.9-2.3l3.3 2z" fill="none" stroke="#2e4369" stroke-linecap="round" stroke-miterlimit="10" stroke-width="2" stroke-linejoin="round" style="stroke:var(--stroke, #2e4369)"></path></symbol></svg>