<svg width="0" height="0" class="hidden">
  <symbol xmlns="http://www.w3.org/2000/svg" viewBox="0 0 64 64" id="bookmark-1">
    <title>Bookmark</title>
    <desc>A line styled icon from Orion Icon Library.</desc>
    <path data-name="layer1"
    d="M46 14h8v48H18a8 8 0 0 1-8-8V8" fill="none" stroke="#f507a0" stroke-miterlimit="10"
    stroke-width="2" stroke-linejoin="round" stroke-linecap="round" style="stroke:var(--layer1, #f507a0)"></path>
    <path data-name="layer2" fill="none" stroke="#2ddfc7" stroke-miterlimit="10"
    stroke-width="2" d="M46 34l-7.9-6-8.1 6V10h16v24z" stroke-linejoin="round"
    stroke-linecap="round" style="stroke:var(--layer2, #2ddfc7)"></path>
    <path data-name="layer1" d="M30 14H16a6 6 0 0 1 0-12h34" fill="none"
    stroke="#f507a0" stroke-miterlimit="10" stroke-width="2" stroke-linejoin="round"
    stroke-linecap="round" style="stroke:var(--layer1, #f507a0)"></path>
  </symbol>
  <symbol xmlns="http://www.w3.org/2000/svg" viewBox="0 0 64 64" id="sandwich-1">
    <title>Sandwich</title>
    <desc>A line styled icon from Orion Icon Library.</desc>
    <path data-name="layer2"
    fill="none" stroke="#2ddfc7" stroke-linecap="round" stroke-linejoin="round"
    stroke-width="2" d="M10 22.5L2 46l8 4m4 6a6 6 0 0 0 11.6 2.2 5 5 0 0 0 9.3-1.2 6 6 0 0 0 10.8-1M54 26.2a10 10 0 0 1 0 19.6"
    style="stroke:var(--layer2, #2ddfc7)"></path>
    <path data-name="layer1" d="M32 2C19.4 2 2 3.9 2 14s8 8.5 8 8.5V51a5 5 0 0 0 5 5h34a5 5 0 0 0 5-5V22.4s8-.3 8-8.4S54.3 2 32 2z"
    fill="none" stroke="#f507a0" stroke-linecap="round" stroke-linejoin="round"
    stroke-width="2" style="stroke:var(--layer1, #f507a0)"></path>
    <circle data-name="layer1" cx="19" cy="15" r="1" fill="none" stroke="#f507a0"
    stroke-linecap="round" stroke-linejoin="round" stroke-width="2" style="stroke:var(--layer1, #f507a0)"></circle>
    <circle data-name="layer1" cx="27" cy="27" r="1" fill="none"
    stroke="#f507a0" stroke-linecap="round" stroke-linejoin="round" stroke-width="2"
    style="stroke:var(--layer1, #f507a0)"></circle>
    <circle data-name="layer1" cx="44" cy="20" r="2" fill="none"
    stroke="#f507a0" stroke-linecap="round" stroke-linejoin="round" stroke-width="2"
    style="stroke:var(--layer1, #f507a0)"></circle>
    <circle data-name="layer1" cx="42" cy="38" r="2" fill="none"
    stroke="#f507a0" stroke-linecap="round" stroke-linejoin="round" stroke-width="2"
    style="stroke:var(--layer1, #f507a0)"></circle>
    <circle data-name="layer1" cx="25" cy="45" r="1" fill="none"
    stroke="#f507a0" stroke-linecap="round" stroke-linejoin="round" stroke-width="2"
    style="stroke:var(--layer1, #f507a0)"></circle>
  </symbol>
  <symbol xmlns="http://www.w3.org/2000/svg" viewBox="0 0 64 64" id="home-1">
    <title>Home</title>
    <desc>A line styled icon from Orion Icon Library.</desc>
    <path data-name="layer1"
    fill="none" stroke="#f507a0" stroke-linecap="round" stroke-miterlimit="10"
    stroke-width="2" d="M2 31L32 5l30 26" stroke-linejoin="round" style="stroke:var(--layer1, #f507a0)"></path>
    <path data-name="layer2" fill="none" stroke="#2ddfc7" stroke-linecap="round"
    stroke-miterlimit="10" stroke-width="2" d="M54 19v-9h-9" stroke-linejoin="round"
    style="stroke:var(--layer2, #2ddfc7)"></path>
    <path data-name="layer1" fill="none" stroke="#f507a0" stroke-linecap="round"
    stroke-miterlimit="10" stroke-width="2" d="M10 32.167V62h14V42h16v20h14V32.083"
    stroke-linejoin="round" style="stroke:var(--layer1, #f507a0)"></path>
  </symbol>
  <symbol xmlns="http://www.w3.org/2000/svg" viewBox="0 0 64 64" id="electronic-medical-record-1">
    <title>Electronic Medical Record</title>
    <desc>A line styled icon from Orion Icon Library.</desc>
    <path data-name="layer2"
    fill="none" stroke="#2ddfc7" stroke-linecap="round" stroke-miterlimit="10"
    stroke-width="2" d="M47 36h-8v-8h-6v8h-8v6h8v8h6v-8h8v-6z" stroke-linejoin="round"
    style="stroke:var(--layer2, #2ddfc7)"></path>
    <path data-name="layer1" d="M54 21v-4a2 2 0 0 0-2-2H20v-4a2 2 0 0 0-2-2H4a2 2 0 0 0-2 2v43a3 3 0 0 0 3 3h54a3 3 0 0 0 3-3V23a2 2 0 0 0-2-2H12a2 2 0 0 0-2 2v31a3 3 0 0 1-3 3"
    fill="none" stroke="#f507a0" stroke-linecap="round" stroke-miterlimit="10"
    stroke-width="2" stroke-linejoin="round" style="stroke:var(--layer1, #f507a0)"></path>
  </symbol>
  <symbol xmlns="http://www.w3.org/2000/svg" viewBox="0 0 64 64" id="asterisk-bulleted-list-1">
    <title>Asterisk Bulleted List</title>
    <desc>A line styled icon from Orion Icon Library.</desc>
    <path data-name="layer2"
    fill="none" stroke="#2ddfc7" stroke-miterlimit="10" stroke-width="2" d="M2 13h10m-7.5 4.3l5-8.6m0 8.6l-5-8.6M2 31h10m-7.5 4.3l5-8.6m0 8.6l-5-8.6M2 49h10m-7.5 4.3l5-8.6m0 8.6l-5-8.6"
    stroke-linejoin="round" stroke-linecap="round" style="stroke:var(--layer2, #2ddfc7)"></path>
    <path data-name="layer1" fill="none" stroke="#f507a0" stroke-miterlimit="10"
    stroke-width="2" d="M22 13h40M22 31h40M22 49h40" stroke-linejoin="round"
    stroke-linecap="round" style="stroke:var(--layer1, #f507a0)"></path>
  </symbol>
</svg>