<svg xmlns="http://www.w3.org/2000/svg" viewBox="0 0 64 64" aria-labelledby="title"
aria-describedby="desc" role="img" xmlns:xlink="http://www.w3.org/1999/xlink">
  <title>Add Medication</title>
  <desc>A line styled icon from Orion Icon Library.</desc>
  <path data-name="layer2"
  d="M48.84 9.16a9.061 9.061 0 0 0-12.8 0l-4.48 4.48" fill="none" stroke="#f507a0"
  stroke-linecap="round" stroke-miterlimit="10" stroke-width="2" stroke-linejoin="round"></path>
  <path data-name="layer2" d="M47.156 30.044l4.884-4.884a13.616 13.616 0 0 0 0-19.2 13.616 13.616 0 0 0-19.2 0L5.96 32.84a13.616 13.616 0 0 0 0 19.2 13.616 13.616 0 0 0 19.2 0L30 47.2M19.4 19.4l15.287 15.287"
  fill="none" stroke="#f507a0" stroke-linecap="round" stroke-miterlimit="10"
  stroke-width="2" stroke-linejoin="round"></path>
  <circle data-name="layer1" cx="46" cy="46" r="16" fill="none" stroke="#2ddfc7"
  stroke-linecap="round" stroke-linejoin="round" stroke-width="2"></circle>
  <path data-name="layer1" fill="none" stroke="#2ddfc7" stroke-linecap="round"
  stroke-linejoin="round" stroke-width="2" d="M46 38v16m-8-8h16"></path>
</svg>