<svg xmlns="http://www.w3.org/2000/svg" viewBox="0 0 64 64" aria-labelledby="title"
aria-describedby="desc" role="img" xmlns:xlink="http://www.w3.org/1999/xlink">
  <title>Electronic Medical Record</title>
  <desc>A line styled icon from Orion Icon Library.</desc>
  <path data-name="layer2"
  fill="none" stroke="#f507a0" stroke-linecap="round" stroke-miterlimit="10"
  stroke-width="2" d="M47 36h-8v-8h-6v8h-8v6h8v8h6v-8h8v-6z" stroke-linejoin="round"></path>
  <path data-name="layer1" d="M54 21v-4a2 2 0 0 0-2-2H20v-4a2 2 0 0 0-2-2H4a2 2 0 0 0-2 2v43a3 3 0 0 0 3 3h54a3 3 0 0 0 3-3V23a2 2 0 0 0-2-2H12a2 2 0 0 0-2 2v31a3 3 0 0 1-3 3"
  fill="none" stroke="#2ddfc7" stroke-linecap="round" stroke-miterlimit="10"
  stroke-width="2" stroke-linejoin="round"></path>
</svg>